<?xml version="1.0" standalone="no"?>
<!DOCTYPE svg PUBLIC "-//W3C//DTD SVG 20010904//EN"
 "http://www.w3.org/TR/2001/REC-SVG-20010904/DTD/svg10.dtd">
<svg version="1.0" xmlns="http://www.w3.org/2000/svg"
 width="512.000000pt" height="512.000000pt" viewBox="0 0 512.000000 512.000000"
 preserveAspectRatio="xMidYMid meet">
<metadata>
Created by potrace 1.14, written by Peter Selinger 2001-2017
</metadata>
<g transform="translate(0.000000,512.000000) scale(0.100000,-0.100000)"
fill="#000000" stroke="none">
<path d="M1545 5104 c-107 -29 -235 -114 -287 -192 l-16 -23 -443 -3 c-424 -2
-446 -3 -497 -23 -153 -61 -248 -165 -288 -316 -20 -78 -20 -1131 1 -1200 37
-123 130 -235 238 -286 72 -33 115 -42 236 -46 99 -3 143 -20 165 -63 7 -15
34 -85 60 -155 52 -144 67 -172 106 -192 46 -24 81 -25 126 -6 54 24 62 38
119 196 56 155 75 188 118 206 47 20 205 17 238 -4 14 -9 52 -27 85 -39 55
-20 83 -22 379 -27 215 -4 327 -10 340 -18 59 -34 72 -59 172 -337 34 -96 73
-141 132 -151 112 -19 147 18 229 246 69 191 94 231 160 249 20 5 170 12 332
13 162 2 304 6 315 10 51 15 111 39 139 56 41 24 194 23 243 -3 39 -20 46 -33
112 -213 29 -78 60 -148 70 -157 18 -17 80 -43 96 -41 97 11 115 32 180 210
26 72 54 142 61 157 22 43 67 60 164 63 120 3 166 13 238 48 107 52 193 150
230 263 16 48 20 91 21 230 1 94 -1 183 -4 197 -4 16 -19 31 -36 39 -16 7 -29
15 -30 18 -1 3 -2 47 -3 98 -2 89 -1 93 21 99 47 11 54 45 53 279 -2 227 -8
272 -53 364 -29 60 -121 151 -183 183 -102 52 -128 54 -582 55 l-423 0 -21 29
c-68 89 -194 169 -303 191 -29 7 -214 11 -448 12 l-397 0 -25 -24 c-14 -14
-25 -31 -25 -38 0 -10 -24 -13 -96 -13 -94 0 -96 0 -110 27 -8 15 -23 32 -34
38 -31 16 -811 11 -875 -6z"/>
<path d="M2439 2245 c-388 -101 -539 -564 -282 -865 20 -23 34 -42 32 -44 -2
-1 -24 -8 -49 -15 -48 -14 -143 -55 -163 -71 -62 -49 -96 -79 -115 -101 l-23
-26 -63 63 c-61 61 -167 124 -208 124 -30 0 -27 14 13 74 58 86 78 161 75 277
-3 86 -6 102 -39 170 -57 117 -147 199 -264 238 -262 88 -537 -72 -593 -343
-26 -129 15 -287 99 -378 13 -16 21 -28 15 -29 -61 -5 -167 -63 -233 -128 -69
-67 -115 -145 -137 -232 -21 -82 -25 -581 -5 -641 14 -43 52 -83 103 -109 35
-18 66 -19 571 -19 l534 0 17 -43 c20 -53 59 -98 106 -123 33 -18 71 -19 705
-22 369 -2 684 0 701 3 72 13 143 84 168 167 5 17 40 18 542 18 l536 0 47 25
c51 28 85 71 98 125 9 39 9 524 0 580 -30 172 -170 335 -333 387 l-52 16 39
51 c23 30 49 82 64 126 70 218 -28 447 -236 548 -140 69 -303 60 -436 -24
-223 -141 -282 -457 -123 -656 17 -20 30 -39 30 -42 0 -2 -17 -10 -37 -16 -68
-22 -157 -78 -210 -133 l-52 -54 -43 45 c-60 63 -148 118 -232 144 -39 12 -73
23 -74 24 -2 1 15 26 38 55 80 101 116 200 119 324 6 243 -155 461 -389 525
-60 17 -204 19 -261 5z"/>
</g>
</svg>
